<svg xmlns="http://www.w3.org/2000/svg" viewBox="0 0 32 32">
  <defs>
    <linearGradient id="brain-gradient" x1="0%" y1="0%" x2="100%" y2="100%">
      <stop offset="0%" stop-color="#9DB2D9"/>
      <stop offset="100%" stop-color="#1A1D2B"/>
    </linearGradient>
  </defs>
  <!-- Brain outline -->
  <path d="M16 4c-3.5 0-6.5 1.8-8 4.5C6.5 8.2 5 9.8 5 12c0 1.5.6 2.8 1.5 3.8-.3.8-.5 1.6-.5 2.5 0 2.5 1.5 4.6 3.5 5.5.5 2.3 2.5 4.2 5.5 4.2s5-1.9 5.5-4.2c2-0.9 3.5-3 3.5-5.5 0-.9-.2-1.7-.5-2.5.9-1 1.5-2.3 1.5-3.8 0-2.2-1.5-3.8-3-4.2C24.5 5.8 21.5 4 18 4h-2z" fill="url(#brain-gradient)" stroke="#CBAF86" stroke-width="0.5"/>
  <!-- Memory nodes -->
  <circle cx="12" cy="12" r="1.5" fill="#CBAF86" opacity="0.8"/>
  <circle cx="20" cy="12" r="1.5" fill="#CBAF86" opacity="0.8"/>
  <circle cx="16" cy="16" r="1.5" fill="#CBAF86" opacity="0.9"/>
  <circle cx="12" cy="20" r="1.5" fill="#CBAF86" opacity="0.7"/>
  <circle cx="20" cy="20" r="1.5" fill="#CBAF86" opacity="0.7"/>
  <!-- Connections -->
  <line x1="12" y1="12" x2="16" y2="16" stroke="#CBAF86" stroke-width="0.5" opacity="0.5"/>
  <line x1="20" y1="12" x2="16" y2="16" stroke="#CBAF86" stroke-width="0.5" opacity="0.5"/>
  <line x1="12" y1="20" x2="16" y2="16" stroke="#CBAF86" stroke-width="0.5" opacity="0.5"/>
  <line x1="20" y1="20" x2="16" y2="16" stroke="#CBAF86" stroke-width="0.5" opacity="0.5"/>
</svg>
